<?xml version="1.0" standalone="no"?>
<!DOCTYPE svg PUBLIC "-//W3C//DTD SVG 20010904//EN"
 "http://www.w3.org/TR/2001/REC-SVG-20010904/DTD/svg10.dtd">
<svg version="1.0" xmlns="http://www.w3.org/2000/svg"
 width="600.000000pt" height="600.000000pt" viewBox="0 0 600.000000 600.000000"
 preserveAspectRatio="xMidYMid meet">

<g transform="translate(0.000000,600.000000) scale(0.100000,-0.100000)"
fill="#000000" stroke="none">
<path d="M2630 5993 c-14 -2 -90 -13 -169 -24 -145 -21 -210 -36 -466 -108
-247 -70 -462 -157 -596 -244 -145 -93 -345 -275 -463 -420 -229 -284 -353
-567 -506 -1162 -97 -376 -158 -733 -145 -860 l7 -80 28 55 c15 30 42 93 60
140 44 116 162 359 249 514 80 143 91 185 14 54 -138 -233 -218 -390 -299
-588 -24 -58 -43 -95 -44 -83 0 36 39 329 61 453 27 152 87 398 149 618 152
527 320 829 625 1120 269 257 474 361 987 501 209 57 353 84 538 100 69 6 141
13 160 15 19 1 -10 3 -65 3 -55 0 -111 -1 -125 -4z"/>
<path d="M3080 5989 c91 -11 227 -49 314 -88 l63 -29 199 6 c229 6 307 -5 455
-64 153 -62 485 -273 709 -451 94 -74 295 -272 286 -280 -3 -3 19 -35 50 -72
90 -109 181 -313 219 -496 18 -87 40 -283 33 -291 -9 -9 -181 101 -265 169
-42 34 -85 69 -97 77 -20 14 -20 14 -6 -5 28 -37 65 -66 190 -149 222 -148
395 -235 549 -276 83 -22 66 -32 -62 -38 -111 -5 -186 7 -259 44 -56 29 -65
30 -47 7 13 -16 12 -17 -3 -4 -10 7 -15 17 -13 22 6 9 -29 31 -37 23 -3 -2
-29 16 -59 42 -54 46 -53 45 5 -10 32 -30 63 -53 69 -49 6 3 7 2 4 -4 -3 -5
63 -70 148 -143 85 -74 157 -140 159 -147 3 -7 10 -13 16 -13 6 0 46 -30 88
-68 42 -37 103 -87 135 -112 31 -25 57 -47 57 -51 0 -10 -82 -52 -139 -71 -39
-13 -46 -17 -21 -13 44 6 180 74 180 89 -1 6 -18 22 -40 36 -21 14 -81 61
-133 105 l-94 80 41 3 c22 1 66 -4 96 -12 69 -18 86 -4 29 24 -30 14 -38 16
-24 4 19 -15 18 -16 -20 -10 -22 3 -64 8 -92 12 -41 4 -63 14 -97 42 -180 148
-225 188 -226 198 0 7 26 1 68 -14 59 -23 81 -26 187 -25 120 1 225 19 232 39
2 7 -17 11 -54 11 -72 0 -179 35 -330 108 -127 60 -113 39 -133 213 -22 195
-51 297 -155 537 -26 61 -141 204 -264 326 -130 130 -280 248 -506 399 -262
174 -401 248 -521 276 -77 17 -371 21 -438 5 -35 -9 -50 -5 -130 29 -141 59
-188 70 -295 69 l-96 -2 75 -8z"/>
<path d="M1740 5693 c-57 -22 -120 -100 -151 -188 -10 -29 -30 -124 -44 -212
-14 -87 -30 -172 -34 -190 l-9 -32 39 26 c21 14 39 28 39 30 0 3 -12 -2 -26
-12 l-26 -17 6 29 c3 15 15 82 26 147 11 66 25 138 31 160 26 97 97 198 156
222 142 60 731 -86 1085 -268 119 -61 187 -77 87 -21 -177 101 -593 245 -916
317 -69 15 -231 21 -263 9z"/>
<path d="M3355 5680 c66 -3 124 -2 130 2 5 4 -49 7 -120 6 l-130 -2 120 -6z"/>
<path d="M3188 5673 c6 -2 18 -2 25 0 6 3 1 5 -13 5 -14 0 -19 -2 -12 -5z"/>
<path d="M3128 5659 c-10 -5 -18 -15 -18 -22 0 -9 2 -9 8 0 4 7 19 16 32 22
14 5 18 10 10 10 -8 0 -23 -4 -32 -10z"/>
<path d="M3148 5533 c18 -2 45 -2 60 0 15 2 0 4 -33 4 -33 0 -45 -2 -27 -4z"/>
<path d="M3038 5523 c7 -3 16 -2 19 1 4 3 -2 6 -13 5 -11 0 -14 -3 -6 -6z"/>
<path d="M3313 5523 c9 -2 23 -2 30 0 6 3 -1 5 -18 5 -16 0 -22 -2 -12 -5z"/>
<path d="M2988 5513 c7 -3 16 -2 19 1 4 3 -2 6 -13 5 -11 0 -14 -3 -6 -6z"/>
<path d="M3408 5513 c7 -3 16 -2 19 1 4 3 -2 6 -13 5 -11 0 -14 -3 -6 -6z"/>
<path d="M2955 5499 c-4 -6 -5 -12 -2 -15 2 -3 7 2 10 11 7 17 1 20 -8 4z"/>
<path d="M3020 5336 c0 -15 5 -14 70 7 8 3 -4 6 -27 6 -31 1 -43 -3 -43 -13z"/>
<path d="M3163 5333 c9 -2 25 -2 35 0 9 3 1 5 -18 5 -19 0 -27 -2 -17 -5z"/>
<path d="M3263 5323 c9 -2 25 -2 35 0 9 3 1 5 -18 5 -19 0 -27 -2 -17 -5z"/>
<path d="M3345 5310 c17 -4 39 -8 50 -8 16 0 15 2 -5 8 -14 4 -36 8 -50 8 -22
0 -22 -1 5 -8z"/>
<path d="M4393 5297 c-20 -43 -130 -161 -226 -242 -52 -44 -93 -82 -91 -84 7
-7 201 168 256 231 55 63 83 106 75 114 -2 2 -9 -6 -14 -19z"/>
<path d="M3480 5276 c224 -80 416 -208 596 -399 51 -54 66 -67 35 -30 -129
154 -295 286 -466 371 -82 40 -195 83 -218 81 -6 0 17 -11 53 -23z"/>
<path d="M1760 5230 c-8 -5 -10 -10 -5 -10 6 0 17 5 25 10 8 5 11 10 5 10 -5
0 -17 -5 -25 -10z"/>
<path d="M1668 5184 c-38 -20 -36 -28 2 -9 17 9 30 18 30 20 0 7 -1 6 -32 -11z"/>
<path d="M2161 5154 c-106 -65 -211 -145 -246 -186 -185 -220 -401 -629 -533
-1008 -166 -475 -232 -855 -233 -1350 -1 -218 2 -269 19 -355 11 -55 26 -152
32 -215 7 -63 14 -117 17 -120 6 -6 -6 147 -14 174 -3 12 -1 16 6 12 6 -4 11
-15 11 -24 0 -26 92 -212 138 -279 22 -32 70 -89 107 -128 l67 -70 -64 73
c-117 135 -217 313 -240 427 -6 33 -15 63 -20 66 -5 3 -13 82 -17 175 -7 154
-8 160 -11 69 -2 -97 -3 -98 -11 -45 -9 51 -2 576 7 592 3 4 20 -4 40 -17 19
-13 49 -27 67 -31 18 -3 35 -11 38 -16 3 -5 19 4 35 21 75 76 213 139 250 113
6 -4 27 -67 48 -140 39 -143 95 -258 152 -313 25 -25 44 -33 82 -37 67 -6 89
9 123 83 34 71 56 223 38 257 -7 12 -6 18 1 18 16 0 2 58 -21 89 -39 53 -208
137 -329 165 -49 11 -56 16 -67 47 l-12 34 0 -32 -1 -33 -67 -1 c-38 0 -90 -4
-118 -8 -46 -8 -51 -7 -77 21 l-27 29 9 -32 c8 -28 6 -35 -19 -58 -23 -22 -48
-90 -43 -121 1 -8 -57 -12 -78 -5 -15 5 -17 15 -13 67 4 70 43 307 68 415 16
71 17 72 61 89 50 19 53 32 3 15 -18 -6 -34 -9 -37 -7 -7 8 75 280 129 430 97
267 192 466 259 546 34 40 111 99 194 150 40 24 40 21 4 -32 -10 -14 -18 -31
-18 -37 0 -18 26 -12 46 10 26 29 75 49 123 49 l39 0 32 -87 c48 -132 113
-365 190 -678 109 -443 155 -680 181 -925 7 -63 17 -118 23 -122 6 -4 37 -8
68 -8 99 0 271 -29 464 -78 l187 -47 17 -51 c35 -103 91 -183 163 -235 46 -33
109 -39 156 -14 54 27 79 68 127 204 4 11 7 12 16 3 10 -10 8 -45 -6 -155 -11
-78 -18 -159 -17 -179 1 -25 -3 -38 -11 -38 -10 0 -9 -3 1 -9 11 -7 3 -16 -34
-40 -27 -17 -55 -31 -62 -31 -7 0 -13 -5 -13 -11 0 -22 214 11 296 46 l36 15
-7 -67 c-7 -65 -31 -133 -47 -133 -4 0 -8 -7 -8 -15 0 -21 14 -19 61 11 58 36
58 24 2 -22 -84 -68 -96 -83 -83 -99 22 -27 145 -16 330 30 57 14 -227 -219
-381 -313 -154 -93 -650 -333 -781 -378 -109 -37 -261 -71 -368 -83 -83 -10
-117 2 -223 76 -403 281 -705 576 -757 738 -7 22 -19 54 -26 70 -18 43 -33
113 -25 121 3 4 1 4 -5 1 -10 -6 -54 83 -54 109 0 5 -9 27 -20 49 -11 22 -20
45 -20 52 0 7 -4 13 -9 13 -5 0 -1 -23 10 -50 10 -28 20 -67 20 -88 1 -21 3
-28 6 -17 8 29 53 -89 54 -139 0 -30 2 -36 8 -21 7 17 9 15 19 -15 31 -103 35
-140 22 -253 -23 -212 -63 -399 -112 -530 -29 -75 -32 -78 -82 -102 -59 -28
-87 -31 -119 -13 -12 7 -29 13 -37 14 -8 2 -19 9 -25 16 -6 7 -37 26 -70 43
-83 40 -193 151 -233 235 -58 118 -75 205 -76 390 0 91 3 179 7 195 l9 30 -15
-26 c-17 -30 -60 -234 -54 -252 2 -7 7 12 11 41 11 75 26 64 26 -20 1 -40 7
-107 14 -148 9 -55 11 -164 8 -417 l-4 -342 -48 -40 -48 -41 -6 28 c-40 183
-94 594 -116 872 -12 162 -34 870 -26 877 3 3 9 -14 12 -38 7 -43 8 -43 15
-15 5 16 6 33 3 38 -14 23 55 419 99 568 l13 45 8 -90 c9 -114 39 -277 77
-430 17 -68 29 -142 28 -170 -2 -63 2 -78 10 -40 6 28 8 25 35 -43 16 -40 33
-75 37 -77 4 -3 5 43 3 103 l-5 107 26 -45 c14 -25 23 -36 19 -25 -116 309
-158 531 -156 821 0 141 4 189 16 219 23 55 19 57 -9 5 -52 -101 -169 -565
-198 -791 -13 -97 -15 -101 -22 -64 -13 60 -10 443 4 580 34 337 110 634 237
932 48 112 112 244 123 253 3 3 21 34 39 68 29 54 31 62 14 53 -37 -20 -111
-114 -147 -186 -19 -39 -45 -112 -56 -161 -29 -122 -81 -284 -90 -279 -11 7
-30 -21 -24 -37 3 -8 -12 -95 -34 -193 -66 -296 -93 -544 -91 -825 1 -80 1
-230 1 -334 l-1 -189 -73 7 c-95 9 -109 -1 -132 -94 -10 -39 -15 -88 -12 -109
4 -33 1 -40 -25 -57 -63 -41 -226 -253 -201 -261 7 -3 13 -8 13 -13 0 -13 -89
-53 -105 -46 -8 3 -17 0 -21 -6 -8 -12 16 -30 33 -23 10 3 10 0 1 -14 -14 -23
-4 -51 22 -58 18 -5 20 -11 14 -54 -4 -27 -2 -61 5 -80 16 -45 4 -76 -35 -95
-19 -9 -34 -22 -34 -30 0 -8 23 -25 51 -39 39 -20 49 -30 44 -43 -19 -46 -25
-85 -31 -192 -8 -140 -1 -190 26 -190 10 0 24 8 29 18 8 13 10 8 11 -25 0 -57
-36 -302 -56 -384 l-17 -67 26 -49 c30 -58 49 -150 40 -196 -3 -17 -19 -61
-34 -96 -37 -82 -38 -129 -3 -171 l27 -31 290 2 c159 1 305 5 324 9 18 5 69
35 112 69 l78 60 6 -52 c4 -29 3 -53 -2 -55 -4 -1 -17 -9 -27 -17 -18 -13 -16
-14 19 -15 l37 0 -7 43 c-10 53 -10 239 -1 337 5 54 5 65 -2 40 -5 -19 -12
-80 -16 -135 -5 -81 -11 -104 -27 -123 -11 -12 -24 -22 -27 -22 -4 0 -10 37
-13 81 -3 45 -10 85 -15 88 -5 3 -12 45 -16 93 -6 69 -4 88 7 95 9 5 16 33 20
73 3 36 9 74 12 85 6 19 6 19 -6 1 -17 -28 -71 -256 -64 -274 8 -21 -11 -30
-48 -23 -32 7 -32 7 -35 74 l-3 67 34 0 34 0 12 92 c17 129 36 203 60 237 12
16 50 46 86 66 78 43 87 58 13 19 -73 -37 -68 -35 -134 -78 -150 -97 -202
-136 -270 -199 l-74 -69 0 -78 c0 -50 -4 -81 -13 -88 -16 -13 -108 -13 -124 0
-18 14 -16 69 3 96 11 15 25 22 50 22 l34 0 0 -55 c0 -30 5 -55 10 -55 11 0
12 9 15 77 l1 43 -51 0 c-65 0 -85 -19 -85 -81 0 -25 5 -50 12 -57 7 -7 39
-12 75 -12 44 0 63 -4 63 -12 0 -9 -20 -14 -60 -16 -49 -3 -66 1 -90 18 -27
19 -30 27 -30 74 0 46 4 56 33 84 29 28 40 32 87 32 55 1 55 1 90 53 50 75
229 250 342 336 94 71 114 89 84 78 -8 -3 -29 17 -55 53 -36 52 -41 66 -41
115 0 52 3 58 37 88 20 18 49 42 66 54 l29 22 33 -35 c28 -30 34 -45 43 -117
l11 -82 -34 -32 c-38 -34 -45 -49 -18 -34 21 11 114 37 161 45 l33 6 -6 -58
c-4 -31 -13 -64 -21 -72 -43 -50 -207 -461 -190 -477 3 -3 7 0 10 8 2 8 16 52
31 99 27 87 128 302 152 321 10 9 13 6 13 -13 0 -25 35 -141 51 -168 14 -25
10 -7 -13 55 -19 49 -23 81 -23 172 0 61 3 114 6 117 3 4 25 -1 49 -9 23 -8
53 -15 65 -15 17 0 27 -11 44 -49 32 -75 60 -206 66 -306 4 -88 4 -89 -8 -38
-12 50 -27 81 -27 52 0 -8 13 -59 29 -115 31 -109 107 -267 156 -323 30 -35
30 -35 -27 8 -53 40 -76 62 -45 45 6 -4 -2 8 -19 27 -78 87 -153 194 -206 294
-43 80 -52 81 -12 2 37 -72 89 -153 135 -208 l38 -45 -10 -78 c-8 -63 -35
-162 -86 -318 -5 -17 13 -18 276 -18 l281 0 0 25 c0 24 3 25 34 19 33 -6 38
-2 97 61 34 36 71 71 81 76 18 10 19 6 16 -58 l-3 -68 -55 -27 -55 -27 139 0
c77 -1 137 1 135 3 -2 2 -32 25 -66 50 -42 30 -63 53 -63 66 0 19 3 19 38 -9
20 -16 58 -39 84 -51 l48 -22 57 52 c112 100 130 86 26 -21 l-67 -70 540 1
c522 1 541 2 570 21 38 26 93 55 123 64 44 13 12 -14 -57 -50 l-67 -34 349 -1
c301 0 347 2 331 14 -15 11 -20 28 -22 79 -2 57 1 67 22 87 l24 23 53 -20 53
-20 8 -64 c4 -35 5 -72 3 -82 -4 -16 1 -18 36 -15 l41 3 25 72 c17 48 31 73
43 76 15 4 18 12 14 34 -4 20 22 100 96 293 135 353 202 545 230 662 12 54 24
96 26 94 2 -2 -6 -59 -17 -127 -11 -68 -26 -225 -35 -349 -19 -279 -31 -393
-55 -541 -29 -168 -26 -193 19 -170 23 13 41 66 111 321 28 102 78 275 110
385 48 163 157 574 184 698 6 24 11 28 34 25 l27 -3 7 -200 c17 -494 58 -805
107 -805 11 0 22 8 26 18 7 18 24 376 25 518 0 74 2 82 23 93 46 25 134 -30
168 -104 20 -43 25 -95 9 -95 -15 0 -12 -31 6 -51 8 -9 18 -43 21 -75 7 -75
23 -94 80 -94 39 0 43 -2 43 -24 0 -16 -11 -32 -30 -46 -32 -23 -39 -45 -16
-53 16 -6 49 -97 35 -97 -5 0 -8 -12 -7 -27 2 -30 -12 -62 -36 -82 -14 -12
-11 -18 19 -54 38 -44 57 -94 48 -127 -4 -15 2 -23 26 -33 l31 -13 -25 -24
c-14 -13 -25 -20 -25 -15 0 4 -9 0 -20 -10 -24 -21 -26 -35 -5 -35 8 0 19 -9
25 -20 6 -11 17 -20 25 -20 18 0 18 5 4 31 -8 17 -3 28 35 70 25 28 46 55 46
59 0 18 -22 21 -39 6 -20 -18 -57 -21 -66 -6 -3 5 -1 10 4 10 28 0 2 110 -32
139 -23 18 -21 41 2 41 37 0 42 79 11 167 -18 51 -18 58 -5 73 9 10 18 45 21
79 5 56 4 61 -15 61 -11 0 -23 -4 -26 -10 -9 -14 -51 -12 -63 3 -10 12 -20 82
-26 172 -7 98 -61 177 -147 214 -48 21 -50 24 -47 56 2 25 -3 39 -17 49 -25
18 -25 21 15 676 21 337 37 539 44 546 6 7 76 37 156 68 80 32 183 73 230 92
47 20 104 43 128 52 27 11 42 22 42 34 0 10 -2 18 -4 18 -2 0 -51 -22 -108
-49 -307 -147 -567 -237 -826 -288 -113 -23 -192 -43 -192 -49 0 -6 7 -18 16
-25 14 -12 14 -14 -3 -20 -15 -7 -15 -8 6 -8 19 -1 22 3 17 22 -5 21 0 23 102
44 91 18 117 20 175 11 85 -13 88 -30 5 -27 -80 3 -88 -16 -22 -50 44 -24 84
-66 97 -103 9 -25 -8 -23 -80 11 -34 17 -65 26 -67 22 -3 -5 6 -31 19 -60 38
-78 36 -80 -54 -59 -65 15 -81 3 -50 -36 18 -23 20 -30 8 -37 -27 -17 -101 -9
-160 17 -33 15 -62 24 -66 20 -4 -3 3 -24 15 -45 14 -25 22 -56 22 -87 l0 -47
-22 20 c-13 12 -65 43 -116 69 -52 27 -112 64 -133 83 -22 18 -42 31 -45 28
-7 -6 34 -126 53 -155 30 -47 4 -31 -61 38 -36 39 -78 88 -92 110 -15 22 -31
40 -36 40 -5 0 -6 5 -3 10 12 19 -16 10 -51 -16 -41 -32 -43 -25 -8 22 19 25
30 32 39 24 9 -8 11 -4 7 15 -6 35 -23 31 -52 -13 -24 -36 -25 -36 -28 -12 -2
14 1 49 8 78 9 40 15 52 26 48 10 -4 19 5 28 25 13 31 15 32 87 34 102 3 186
-10 253 -41 69 -32 91 -29 92 11 1 33 -15 75 -27 75 -17 0 -19 -21 -4 -49 8
-17 15 -33 15 -36 0 -8 -63 5 -70 14 -8 9 -82 44 -105 49 -11 2 -64 6 -118 9
-87 4 -97 6 -92 22 13 41 75 335 90 431 10 58 20 182 24 275 l6 170 57 -230
c32 -126 67 -286 78 -355 12 -69 25 -129 31 -134 5 -6 9 -21 9 -35 0 -19 3
-22 12 -13 9 9 12 87 12 284 0 287 -11 418 -58 690 -20 113 -20 128 -7 128 13
1 12 4 -3 15 -30 22 -11 30 36 15 24 -8 47 -13 52 -11 4 1 13 -5 20 -12 21
-27 132 -111 236 -180 110 -72 330 -187 438 -228 45 -17 95 -50 170 -112 91
-74 368 -275 394 -285 4 -2 8 4 8 13 0 8 -17 26 -37 38 -147 86 -412 281 -400
294 2 2 17 -1 32 -7 44 -17 43 -2 -1 16 -21 8 -58 25 -82 36 -38 18 -41 22
-30 37 8 9 29 34 48 56 l34 40 90 6 c86 5 83 5 -49 7 -77 1 -165 4 -195 7 -30
2 -48 2 -40 -1 8 -2 49 -8 92 -12 l76 -7 -41 -47 -42 -47 -68 56 c-42 34 -64
59 -57 63 7 4 -2 10 -20 14 -51 10 -57 7 -29 -12 54 -37 119 -95 114 -103 -3
-4 7 -15 22 -23 15 -8 21 -15 13 -16 -28 0 -335 159 -440 228 -132 88 -222
161 -235 190 -5 12 -13 22 -18 22 -4 0 -5 -6 -1 -12 6 -10 4 -10 -7 0 -7 6
-21 12 -31 12 -10 0 -25 14 -33 31 -9 17 -19 28 -22 25 -3 -3 0 -12 7 -20 14
-18 10 -39 -6 -28 -6 4 -20 72 -31 152 l-20 145 64 84 c34 46 63 89 63 95 0 6
-9 0 -20 -14 -97 -131 -109 -143 -114 -119 -3 13 -15 71 -27 129 -25 125 -68
264 -116 377 l-35 83 121 116 c178 171 271 306 271 397 0 52 -16 47 -23 -8
-14 -99 -105 -232 -262 -384 -58 -55 -109 -101 -113 -101 -8 0 -118 183 -146
244 -14 30 -20 36 -23 23 -5 -19 14 -55 99 -189 114 -179 186 -389 237 -697
17 -101 31 -192 30 -204 0 -12 -24 61 -54 163 -56 193 -103 333 -162 485 -49
125 -63 132 -17 10 205 -558 302 -992 334 -1490 9 -138 4 -393 -7 -382 -2 2
-10 44 -19 93 -21 122 -144 637 -154 648 -5 5 -16 6 -26 2 -15 -6 -16 -19 -12
-122 6 -137 -5 -323 -27 -443 -20 -109 -78 -331 -82 -311 -1 8 -7 77 -12 154
-11 160 -70 607 -82 620 -5 5 -8 -40 -7 -100 1 -60 4 -95 8 -79 5 27 7 26 13
-20 34 -227 40 -298 41 -470 1 -171 -1 -197 -21 -255 -31 -91 -49 -193 -36
-197 11 -4 -7 -80 -46 -195 l-18 -53 -2 365 c-2 201 -3 401 -4 445 -1 62 6
105 31 195 17 63 32 124 31 135 0 11 -13 -29 -29 -90 -15 -60 -46 -159 -68
-220 -46 -128 -160 -406 -172 -418 -10 -11 -2 194 11 285 12 88 12 98 -5 98
-9 0 -16 -20 -20 -62 -8 -69 -57 -264 -79 -316 -13 -31 -14 -20 -9 117 7 213
-26 553 -88 922 -11 64 -20 119 -20 123 0 3 35 31 78 62 87 64 107 82 75 65
-21 -11 -27 -8 -24 12 1 4 -12 -2 -28 -14 -17 -12 -27 -27 -24 -32 3 -6 2 -7
-4 -4 -5 4 -25 -5 -43 -18 -19 -14 -35 -23 -36 -22 -9 8 -46 208 -40 214 4 4
50 -3 104 -15 140 -32 173 -42 167 -52 -3 -4 4 -6 14 -3 11 3 62 -9 113 -25
239 -78 258 -80 244 -35 -5 14 -22 23 -64 32 -164 36 -233 54 -230 61 3 7 109
90 221 173 52 38 67 60 48 71 -9 6 -171 -109 -171 -121 0 -3 8 1 18 8 14 11
13 10 -2 -9 -20 -23 -42 -31 -30 -9 5 8 2 7 -9 -2 -10 -8 -15 -16 -12 -19 7
-7 -15 -32 -27 -32 -6 0 -4 8 3 18 12 14 10 14 -8 -2 -12 -10 -21 -23 -20 -28
1 -6 -4 -13 -12 -16 -8 -3 -11 0 -7 7 11 17 0 13 -15 -6 -12 -14 -12 -16 0 -8
9 5 12 4 8 -2 -11 -18 -60 -12 -206 26 l-144 38 -52 199 c-118 455 -218 720
-367 977 -63 109 -283 319 -332 317 -6 -1 7 -10 29 -22 47 -24 203 -179 261
-258 111 -152 240 -453 329 -770 49 -172 114 -434 110 -439 -3 -2 -23 1 -46 8
-30 9 -44 10 -53 1 -17 -17 7 -45 40 -46 76 -3 70 4 93 -104 29 -141 29 -143
-25 -180 -49 -34 -53 -53 -11 -58 19 -2 30 4 43 22 9 14 19 26 23 26 20 0 124
-801 107 -818 -3 -3 -73 39 -155 94 l-148 99 -7 105 c-3 58 -11 150 -16 205
-6 55 -15 180 -22 278 -7 97 -14 177 -17 177 -4 0 -6 -111 -7 -248 -1 -180 -5
-273 -17 -341 -9 -52 -18 -96 -20 -98 -4 -3 -28 141 -78 472 -33 224 -178 907
-195 924 -9 9 -3 -23 32 -171 71 -307 150 -717 169 -878 4 -30 9 -62 11 -72 4
-13 -5 -17 -46 -20 l-50 -3 0 49 c0 46 1 48 25 44 14 -3 25 -1 25 3 0 5 -11 9
-24 9 -23 0 -24 3 -30 103 -4 56 -11 140 -16 187 -6 47 -12 103 -14 125 -7 70
-35 232 -87 509 -27 147 -48 270 -46 273 3 2 8 -12 11 -33 4 -20 10 -34 12
-31 3 3 -9 56 -26 119 -17 62 -44 160 -60 218 -33 121 -73 241 -90 267 -6 10
-9 12 -6 3 2 -8 19 -58 36 -110 42 -126 66 -237 144 -655 115 -613 132 -776
120 -1152 l-7 -233 -51 0 c-28 0 -100 12 -161 26 -60 14 -157 36 -215 49 -58
14 -150 30 -205 36 -55 6 -114 13 -131 15 l-31 4 -7 88 c-19 240 -122 727
-266 1262 -52 193 -87 298 -176 526 -41 105 -74 196 -74 202 0 7 19 24 43 39
23 16 49 36 57 45 8 9 57 38 108 63 50 25 92 50 92 55 0 19 -25 9 -99 -36z
m-162 -327 c27 -66 36 -99 28 -101 -37 -11 -94 -28 -107 -33 -8 -3 0 10 18 29
32 34 41 58 21 58 -12 0 -51 -25 -167 -108 -87 -63 -87 -63 52 141 78 115 102
144 107 130 4 -10 26 -62 48 -116z m-200 -59 c-102 -153 -143 -208 -99 -133
68 116 184 285 196 285 2 0 -41 -69 -97 -152z m-902 -407 c-29 -60 -53 -108
-55 -106 -9 8 90 215 103 215 2 0 -20 -49 -48 -109z m3013 -845 c0 -2 -8 -10
-17 -17 -16 -13 -17 -12 -4 4 13 16 21 21 21 13z m-3086 -471 c9 -66 31 -174
48 -240 31 -117 49 -285 31 -285 -17 0 -106 354 -127 500 -30 213 -31 270 -5
357 l24 78 6 -145 c4 -80 14 -199 23 -265z m2715 68 c1 -12 -3 -25 -9 -28 -6
-4 -10 12 -9 42 0 36 3 43 9 28 5 -11 9 -30 9 -42z m-2084 -103 c-3 -5 -12
-10 -18 -10 -7 0 -6 4 3 10 19 12 23 12 15 0z m-55 -24 c0 -2 -8 -10 -17 -17
-16 -13 -17 -12 -4 4 13 16 21 21 21 13z m641 -43 c13 -16 12 -17 -3 -4 -10 7
-18 15 -18 17 0 8 8 3 21 -13z m1694 -332 c3 -5 1 -12 -4 -15 -5 -3 -11 1 -15
9 -6 16 9 21 19 6z m-16 -61 l-1 -25 -8 25 c-4 14 -8 32 -9 40 -1 13 0 13 9 0
5 -8 9 -26 9 -40z m41 3 c-16 -19 -21 -22 -15 -8 4 11 10 28 12 38 4 12 9 15
16 8 6 -6 2 -19 -13 -38z m98 -19 c10 -7 -114 -194 -129 -194 -4 0 -1 32 7 71
23 122 69 168 122 123z m331 -307 l1 -228 -33 -14 c-51 -21 -193 -45 -266 -45
l-66 1 77 72 c42 40 88 90 102 111 26 38 35 86 17 86 -7 0 51 156 63 167 1 1
17 -11 36 -27 19 -17 41 -30 48 -30 14 0 16 22 3 36 -6 5 -7 50 -3 109 6 96 7
98 13 45 4 -30 7 -158 8 -283z m-492 271 c-2 -13 -4 -5 -4 17 -1 22 1 32 4 23
2 -10 2 -28 0 -40z m179 -224 c-9 -22 -256 -87 -272 -71 -3 2 11 15 31 27 48
30 150 150 200 236 l40 68 3 -124 c1 -68 0 -130 -2 -136z m269 199 c-8 -70
-15 -85 -34 -73 -12 7 -10 18 9 69 12 34 25 61 27 61 3 0 2 -26 -2 -57z m-460
-68 c-3 -31 -9 -55 -11 -52 -3 2 -2 30 2 61 4 31 9 54 12 52 2 -3 1 -30 -3
-61z m40 0 c-9 -54 -10 -54 -18 0 -5 28 -4 34 3 20 8 -18 9 -16 9 9 1 16 4 27
7 24 3 -4 2 -27 -1 -53z m1695 9 c0 -29 -69 -1129 -75 -1184 -3 -30 -12 -179
-20 -330 -8 -151 -18 -295 -21 -320 l-7 -45 -13 50 c-34 126 -54 353 -75 855
-6 146 -15 269 -20 274 -5 6 -9 -8 -9 -36 0 -33 -5 -48 -16 -52 -13 -5 -15 -1
-12 24 3 17 1 27 -4 22 -5 -5 -15 -46 -23 -93 -47 -264 -82 -422 -136 -609
-41 -140 -245 -798 -258 -830 -14 -35 -13 -13 4 123 8 65 24 241 35 390 18
249 53 577 66 620 3 9 1 17 -5 17 -6 0 -11 -8 -11 -18 0 -13 -7 -18 -22 -18
-21 1 -24 -8 -46 -114 -13 -63 -45 -180 -72 -260 -43 -129 -262 -684 -321
-815 l-23 -50 -7 105 c-8 104 -13 704 -7 747 5 35 -16 27 -24 -9 -4 -18 -10
-85 -14 -148 -5 -100 -10 -120 -31 -152 -40 -59 -176 -184 -314 -289 l-126
-96 37 81 c82 177 210 535 215 597 1 15 33 76 72 135 97 152 176 285 171 289
-2 2 -49 -69 -105 -158 -148 -237 -239 -363 -412 -571 -85 -102 -156 -186
-157 -186 -1 0 17 55 41 122 43 118 87 254 246 748 40 124 73 240 73 258 0 18
2 28 6 22 6 -9 110 300 110 327 0 6 6 13 14 16 7 3 16 21 20 40 4 19 13 40 21
47 12 10 14 -5 17 -97 2 -70 -1 -117 -9 -132 -12 -25 -9 -41 8 -41 19 0 187
183 253 276 l29 40 84 -83 84 -83 -7 -45 c-4 -30 -3 -45 5 -45 11 0 91 157 91
178 0 32 82 -13 108 -58 9 -16 22 -28 27 -27 14 5 18 113 6 148 -5 16 -9 29
-8 29 1 0 24 -7 51 -15 27 -8 69 -15 93 -15 24 0 54 -7 67 -16 36 -23 41 -1
11 51 l-27 45 29 0 c15 0 48 -5 72 -11 47 -11 60 -7 43 13 -15 18 -53 118 -45
118 3 0 30 -13 60 -30 60 -34 83 -38 83 -13 0 23 -56 108 -91 137 -16 14 -29
27 -29 30 0 3 17 6 38 6 44 0 72 14 57 29 -6 5 -32 14 -60 19 -48 8 -49 9 -20
16 17 4 71 20 120 36 108 33 115 34 115 14z m-4829 -264 c3 -124 10 -282 14
-351 l8 -127 -36 -11 c-60 -20 -64 -32 -33 -111 24 -60 26 -74 17 -107 -11
-36 -9 -40 19 -65 17 -16 37 -28 45 -28 19 0 28 -38 64 -260 16 -102 34 -196
38 -208 8 -21 0 -32 -64 -95 -42 -40 -77 -67 -81 -61 -5 5 -21 26 -36 47 -36
50 -67 64 -102 48 -15 -6 -29 -10 -31 -7 -7 6 15 44 39 68 31 31 8 41 -37 17
-54 -28 -116 -21 -156 17 -36 34 -36 39 -2 68 22 19 27 31 24 62 -2 22 -4 48
-4 59 -2 24 -37 34 -37 11 0 -10 -9 -16 -25 -16 -13 0 -40 -14 -58 -30 -35
-30 -35 -30 -41 -8 -9 36 -7 120 6 205 9 63 16 83 40 106 32 33 35 47 11 47
-10 0 -38 10 -63 22 -41 19 -43 21 -22 27 17 4 28 20 41 56 10 28 22 59 26 69
7 16 5 18 -13 14 -15 -4 -22 0 -26 16 -7 29 9 94 29 116 26 29 9 44 -22 20
-30 -24 -43 -19 -39 16 2 17 14 31 42 45 75 40 102 78 68 97 -29 16 107 176
186 217 24 12 30 21 24 33 -16 36 -15 94 1 146 17 54 18 55 59 59 22 2 59 4
81 3 l40 -1 6 -225z m3381 198 c-8 -8 -9 -4 -5 13 4 13 8 18 11 10 2 -7 -1
-18 -6 -23z m-265 -20 c-3 -8 -6 -5 -6 6 -1 11 2 17 5 13 3 -3 4 -12 1 -19z
m-16 -22 c15 9 10 -2 -10 -20 -18 -16 -18 -16 -13 11 3 15 7 22 10 15 2 -6 8
-10 13 -6z m273 -87 c-5 -53 -4 -69 6 -69 23 0 -19 -37 -66 -59 -24 -12 -46
-21 -49 -21 -3 0 19 47 50 103 57 107 63 123 43 111 -7 -4 -8 -3 -4 5 17 28
27 -4 20 -70z m385 -220 c-31 -63 -127 -219 -135 -219 -2 0 10 27 25 60 16 34
37 89 46 124 15 55 22 66 53 84 20 11 38 19 40 17 2 -1 -11 -32 -29 -66z m90
30 l22 -30 -57 -72 c-134 -167 -216 -249 -180 -179 8 15 51 87 95 161 45 73
81 137 81 142 0 18 17 8 39 -22z m180 -43 l43 -29 -5 -50 c-7 -56 -11 -62 -27
-52 -14 9 -80 143 -80 163 0 14 1 14 69 -32z m91 -58 c0 -7 -5 -20 -10 -28 -8
-12 -10 -9 -10 13 0 15 5 27 10 27 6 0 10 -6 10 -12z m-3046 -85 c25 -38 76
-99 114 -137 77 -75 74 -66 40 -176 -60 -190 -169 -316 -329 -381 -83 -34
-137 -37 -170 -10 l-24 19 45 -5 c70 -7 100 18 139 113 46 115 88 296 113 481
12 90 23 163 25 163 1 0 23 -30 47 -67z m2434 -5 c-13 -59 -79 -271 -87 -279
-9 -10 -51 9 -57 26 -4 9 8 31 29 55 43 47 80 117 73 136 -3 8 -16 14 -28 14
-20 0 -18 6 24 45 26 25 49 45 51 45 3 0 1 -19 -5 -42z m-48 -64 c0 -9 -77
-119 -91 -131 -8 -6 -23 -12 -33 -14 -31 -6 -28 -21 10 -63 l36 -39 -9 -65 -8
-64 -90 -55 c-81 -50 -203 -108 -440 -208 -78 -33 -197 -69 -375 -115 -47 -12
-94 -27 -105 -33 -11 -7 -47 -13 -80 -13 -71 -2 -130 -10 -145 -19 -6 -3 -10
3 -10 15 0 12 -10 25 -25 32 -23 10 -92 115 -82 124 2 2 25 -5 52 -17 39 -17
62 -20 129 -17 79 3 85 5 271 98 131 65 219 116 283 164 137 105 199 145 314
206 104 55 237 140 291 186 20 17 32 22 37 14 5 -7 11 -6 20 5 12 14 50 22 50
9z m-3426 -249 l5 -60 -21 45 c-11 25 -27 57 -34 72 -19 36 -18 43 9 55 20 9
23 7 29 -21 4 -17 10 -58 12 -91z m1246 -118 c18 -334 60 -636 119 -865 11
-40 16 -72 11 -70 -4 2 -74 64 -156 138 -162 148 -271 266 -365 392 -60 82
-61 82 -37 92 169 68 261 151 332 299 25 50 53 120 62 155 10 34 19 61 20 59
2 -2 8 -91 14 -200z m211 41 l67 -53 6 -115 c13 -219 40 -435 61 -506 15 -47
-30 47 -101 211 -75 175 -185 489 -200 570 l-7 40 54 -47 c30 -26 84 -71 120
-100z m3083 117 c-9 -14 -18 -25 -20 -25 -2 0 -4 11 -4 25 0 18 5 25 20 25 20
0 20 -1 4 -25z m-4226 -147 l30 -44 -61 -49 c-34 -27 -57 -41 -54 -31 4 10 7
77 7 149 l1 132 23 -57 c13 -31 38 -76 54 -100z m4246 97 c4 -10 -1 -15 -16
-15 -17 0 -18 2 -8 15 7 8 14 15 15 15 2 0 5 -7 9 -15z m-4540 -138 c4 -16 0
-15 -25 9 -16 15 -29 37 -29 48 1 19 3 18 25 -8 13 -16 26 -38 29 -49z m3296
-46 c0 -8 -67 -43 -185 -96 -76 -35 -338 -135 -342 -131 -5 5 187 93 298 137
57 23 129 54 159 70 58 31 70 34 70 20z m-1646 -98 c21 -24 64 -57 95 -75 31
-17 82 -52 115 -77 60 -47 113 -82 154 -100 16 -8 22 -19 22 -43 l-1 -33 -20
28 c-12 15 -42 39 -67 54 -85 49 -245 167 -311 229 -51 48 -63 64 -57 80 8 19
8 19 19 0 7 -11 29 -39 51 -63z m1619 11 c-22 -59 -22 -59 -273 -155 -395
-152 -608 -219 -693 -219 -50 0 -108 15 -118 31 -13 21 -108 -44 -140 -96 -24
-39 -24 -19 0 37 36 83 52 91 214 99 157 8 189 16 418 99 292 107 422 160 512
208 51 28 93 49 95 47 1 -1 -5 -24 -15 -51z m-2766 -6 c15 -19 23 -98 10 -98
-6 0 -8 3 -4 6 3 3 -3 26 -14 51 -10 24 -19 47 -19 49 0 9 18 3 27 -8z m1190
-101 c86 -71 203 -156 243 -177 19 -10 47 -31 62 -47 l27 -28 -19 -95 c-11
-52 -23 -149 -27 -215 l-7 -120 -16 80 c-8 44 -19 86 -23 93 -5 7 -14 40 -21
75 -11 55 -15 62 -37 62 -13 0 -39 11 -56 24 -27 20 -33 32 -33 63 l0 38 -42
0 c-24 0 -72 -5 -107 -10 -35 -6 -65 -9 -68 -7 -6 7 -22 121 -32 227 -6 75 -5
101 6 123 l14 29 39 -34 c21 -18 65 -55 97 -81z m240 -38 c12 -21 19 -39 16
-39 -8 0 -77 61 -85 75 -5 8 1 10 20 7 19 -2 34 -15 49 -43z m1203 -10 c-102
-94 -268 -215 -651 -472 l-354 -238 -55 17 c-30 9 -60 20 -67 26 -8 6 -11 38
-9 97 5 143 69 307 126 322 14 3 70 4 126 1 l101 -5 164 56 c90 31 277 101
414 156 138 55 255 100 260 100 6 0 -19 -27 -55 -60z m-2643 35 c-3 -3 -12 -4
-19 -1 -8 3 -5 6 6 6 11 1 17 -2 13 -5z m-235 -102 c10 -19 10 -25 -2 -32 -25
-15 -50 18 -50 64 l0 41 20 -25 c10 -14 25 -35 32 -48z m-659 26 c7 -26 -6
-44 -36 -50 -20 -4 -22 -1 -19 34 4 32 8 38 27 38 15 0 25 -7 28 -22z m1867
-95 c0 -13 4 -23 9 -23 10 0 31 -54 31 -81 0 -36 -21 -18 -52 45 -24 48 -29
70 -24 92 7 28 8 28 22 10 8 -11 14 -30 14 -43z m997 41 c-3 -3 -12 -4 -19 -1
-8 3 -5 6 6 6 11 1 17 -2 13 -5z m-2250 -26 c-3 -8 -6 -5 -6 6 -1 11 2 17 5
13 3 -3 4 -12 1 -19z m1232 -83 c22 -39 29 -63 25 -80 -3 -14 -2 -25 3 -25 5
0 6 -25 2 -57 -7 -56 -36 -194 -41 -197 -2 -1 -16 -8 -32 -14 -36 -16 -39 -11
-57 70 -10 52 -10 70 5 137 19 82 57 221 62 221 1 0 16 -25 33 -55z m-1263
-119 c-9 -19 -16 -49 -16 -68 0 -63 -16 -60 -32 7 l-16 66 37 25 c41 28 50 18
27 -30z m1479 25 c-6 -5 -23 -12 -40 -15 l-30 -6 30 14 c35 18 54 20 40 7z
m362 -43 c-3 -8 -6 -5 -6 6 -1 11 2 17 5 13 3 -3 4 -12 1 -19z m-1893 -72 c16
-64 16 -70 1 -85 -15 -15 -16 -12 -13 34 l3 50 -53 1 c-29 1 -55 4 -58 7 -3 3
16 21 42 41 26 20 51 33 54 29 4 -5 15 -39 24 -77z m1714 47 c11 -21 22 -65
26 -97 9 -78 -2 -67 -15 15 -5 35 -19 76 -30 92 -11 15 -15 27 -10 27 6 0 19
-17 29 -37z m-100 7 c1 -9 -11 -36 -27 -60 -37 -55 -38 -58 -6 -52 38 7 34
-36 -7 -75 -60 -55 -93 -48 -47 11 12 15 20 28 18 30 -2 2 -35 0 -73 -5 -38
-5 -71 -7 -73 -5 -7 6 16 51 41 80 l24 29 13 -37 c7 -20 19 -36 26 -36 16 0
16 9 -2 40 -23 40 -18 58 23 80 42 22 85 22 90 0z m-247 -81 c-5 -13 -10 -19
-10 -12 -1 15 10 45 15 40 3 -2 0 -15 -5 -28z m-664 -46 c-3 -10 -5 -4 -5 12
0 17 2 24 5 18 2 -7 2 -21 0 -30z m648 -12 c-23 -107 14 -244 74 -276 39 -20
152 -20 191 0 24 13 86 100 103 145 5 13 6 13 6 0 2 -30 -64 -124 -107 -155
-86 -59 -194 -32 -259 67 -23 34 -29 55 -31 117 -3 69 8 131 24 131 3 0 3 -13
-1 -29z m-1528 -73 l33 -32 0 32 c0 18 5 32 10 32 6 0 10 -38 10 -95 0 -57 -4
-95 -10 -95 -5 0 -10 19 -10 43 0 37 -6 48 -40 82 l-40 39 0 -82 c0 -48 -4
-82 -10 -82 -6 0 -10 38 -10 95 0 110 10 119 67 63z m113 -68 c0 -73 -3 -90
-15 -90 -12 0 -15 17 -15 90 0 73 3 90 15 90 12 0 15 -17 15 -90z m1485 -45
c7 -20 6 -20 -9 -1 -11 13 -16 38 -15 75 l2 56 7 -55 c4 -30 11 -64 15 -75z
m264 33 c-19 -38 -51 -79 -56 -75 -4 5 57 97 64 97 2 0 -2 -10 -8 -22z m-89
-14 c0 -8 -7 -14 -15 -14 -15 0 -21 21 -9 33 10 9 24 -2 24 -19z m-467 -81
c-54 -148 -58 -133 43 -168 48 -16 85 -34 83 -40 -2 -5 -6 -9 -9 -8 -3 1 -43
17 -90 34 -47 18 -86 33 -88 34 -1 1 14 51 34 111 19 60 37 115 39 122 3 6 9
12 14 12 6 0 -6 -44 -26 -97z m662 77 c-27 -12 -43 -12 -25 0 8 5 22 9 30 9
10 0 8 -3 -5 -9z m177 -61 c-4 -4 -55 -37 -114 -73 -120 -73 -110 -75 -122 19
-7 50 0 61 44 70 19 4 46 13 59 20 21 10 34 9 82 -9 32 -11 55 -24 51 -27z
m1548 15 c0 -9 -28 -45 -62 -80 -49 -51 -66 -63 -82 -58 -29 9 -28 8 -14 39 7
16 42 47 78 71 73 48 80 51 80 28z m0 -119 c0 -36 -4 -65 -9 -65 -5 0 -25 7
-45 15 l-37 16 41 49 c23 28 44 50 46 50 2 0 4 -29 4 -65z m-150 -49 c0 -3 -4
-8 -10 -11 -5 -3 -10 -1 -10 4 0 6 5 11 10 11 6 0 10 -2 10 -4z"/>
<path d="M1428 5025 c-32 -25 -58 -47 -58 -50 0 -3 27 16 60 42 53 41 66 53
58 53 -2 0 -29 -20 -60 -45z"/>
<path d="M1310 4925 c-24 -25 -42 -45 -39 -45 3 0 25 20 49 45 24 25 42 45 39
45 -3 0 -25 -20 -49 -45z"/>
<path d="M5052 4908 c-3 -64 -30 -183 -62 -278 -33 -100 -35 -136 -2 -48 37
99 73 264 69 315 -3 40 -4 42 -5 11z"/>
<path d="M1234 4858 l-19 -23 23 19 c21 18 27 26 19 26 -2 0 -12 -10 -23 -22z"/>
<path d="M1174 4788 c-59 -63 -88 -98 -83 -98 3 0 33 32 68 70 68 77 79 95 15
28z"/>
<path d="M4160 4776 c0 -2 8 -10 18 -17 15 -13 16 -12 3 4 -13 16 -21 21 -21
13z"/>
<path d="M1069 4663 c-13 -16 -12 -17 4 -4 9 7 17 15 17 17 0 8 -8 3 -21 -13z"/>
<path d="M4937 4490 c-3 -11 -3 -20 -1 -20 2 0 8 9 14 20 6 11 7 20 2 20 -6 0
-12 -9 -15 -20z"/>
<path d="M3171 4295 c0 -11 4 -29 9 -40 l9 -20 0 20 c0 11 -4 29 -9 40 l-9 20
0 -20z"/>
<path d="M4782 4208 c-18 -27 -31 -52 -29 -55 7 -6 69 86 65 97 -2 5 -18 -14
-36 -42z"/>
<path d="M5780 3830 c8 -5 20 -10 25 -10 6 0 3 5 -5 10 -8 5 -19 10 -25 10 -5
0 -3 -5 5 -10z"/>
<path d="M4960 3806 c0 -3 14 -12 30 -21 17 -9 30 -13 30 -11 0 3 -13 12 -30
21 -16 9 -30 13 -30 11z"/>
<path d="M5060 3750 c19 -11 40 -19 45 -19 6 0 -6 8 -25 19 -19 11 -39 19 -45
19 -5 0 6 -8 25 -19z"/>
<path d="M5160 3710 c8 -5 22 -9 30 -9 10 0 8 3 -5 9 -27 12 -43 12 -25 0z"/>
<path d="M5225 3690 c11 -5 27 -9 35 -9 9 0 8 4 -5 9 -11 5 -27 9 -35 9 -9 0
-8 -4 5 -9z"/>
<path d="M5288 3673 c7 -3 16 -2 19 1 4 3 -2 6 -13 5 -11 0 -14 -3 -6 -6z"/>
<path d="M5328 3663 c7 -3 16 -2 19 1 4 3 -2 6 -13 5 -11 0 -14 -3 -6 -6z"/>
<path d="M5378 3653 c6 -2 18 -2 25 0 6 3 1 5 -13 5 -14 0 -19 -2 -12 -5z"/>
<path d="M1611 3639 c-34 -4 -67 -9 -72 -11 -5 -2 79 -3 186 -4 180 0 221 4
179 20 -22 8 -215 5 -293 -5z"/>
<path d="M5443 3643 c9 -2 25 -2 35 0 9 3 1 5 -18 5 -19 0 -27 -2 -17 -5z"/>
<path d="M5600 3640 c-20 -6 -21 -8 -5 -8 11 0 29 3 40 8 25 11 -1 11 -35 0z"/>
<path d="M5533 3633 c9 -2 23 -2 30 0 6 3 -1 5 -18 5 -16 0 -22 -2 -12 -5z"/>
<path d="M1458 3613 c7 -3 16 -2 19 1 4 3 -2 6 -13 5 -11 0 -14 -3 -6 -6z"/>
<path d="M1418 3603 c7 -3 16 -2 19 1 4 3 -2 6 -13 5 -11 0 -14 -3 -6 -6z"/>
<path d="M3981 3586 c-8 -10 -9 -16 -1 -21 5 -3 10 -5 11 -3 4 18 7 38 4 38
-1 0 -8 -6 -14 -14z"/>
<path d="M5398 3573 c6 -2 18 -2 25 0 6 3 1 5 -13 5 -14 0 -19 -2 -12 -5z"/>
<path d="M3939 3553 c-13 -16 -12 -17 4 -4 16 13 21 21 13 21 -2 0 -10 -8 -17
-17z"/>
<path d="M5338 3563 c6 -2 18 -2 25 0 6 3 1 5 -13 5 -14 0 -19 -2 -12 -5z"/>
<path d="M5223 3553 c9 -2 25 -2 35 0 9 3 1 5 -18 5 -19 0 -27 -2 -17 -5z"/>
<path d="M5150 3535 c0 -15 123 -65 210 -85 30 -7 69 -19 87 -27 39 -16 54
-17 33 -2 -11 8 -2 9 34 5 27 -3 67 -6 89 -6 l39 0 -16 -25 c-15 -23 -15 -25
2 -25 10 0 25 13 35 29 14 23 26 30 68 35 28 4 49 9 47 12 -3 2 -42 -1 -87 -7
-137 -19 -330 14 -477 81 -46 21 -64 25 -64 15z"/>
<path d="M5166 3373 c50 -46 212 -158 219 -151 3 2 -31 29 -76 58 -49 32 -76
56 -69 60 7 5 1 10 -17 14 -15 4 -44 19 -63 33 -32 23 -32 22 6 -14z"/>
<path d="M5538 3393 c7 -3 16 -2 19 1 4 3 -2 6 -13 5 -11 0 -14 -3 -6 -6z"/>
<path d="M5578 3383 c7 -3 16 -2 19 1 4 3 -2 6 -13 5 -11 0 -14 -3 -6 -6z"/>
<path d="M5668 3363 c6 -2 18 -2 25 0 6 3 1 5 -13 5 -14 0 -19 -2 -12 -5z"/>
<path d="M5773 3345 c38 -5 65 -13 61 -17 -4 -5 -2 -8 4 -8 21 0 117 22 124
29 4 3 -52 6 -125 6 -127 0 -129 0 -64 -10z"/>
<path d="M5768 3313 c12 -2 30 -2 40 0 9 3 -1 5 -23 4 -22 0 -30 -2 -17 -4z"/>
<path d="M1725 3241 c-3 -6 2 -14 12 -18 53 -18 137 -56 165 -73 18 -11 41
-20 51 -20 10 0 33 -11 51 -25 34 -26 56 -32 56 -15 0 14 -99 85 -144 104 -21
9 -65 23 -97 31 -32 9 -65 18 -73 21 -8 3 -17 1 -21 -5z m174 -57 c14 -12 -19
-1 -35 12 -18 14 -18 14 6 3 14 -6 27 -13 29 -15z"/>
<path d="M960 3078 c0 -67 7 -211 16 -318 9 -107 17 -219 19 -248 5 -66 24
-127 36 -115 5 5 3 38 -6 78 -20 98 -42 298 -49 440 l-6 120 34 -145 c40 -173
64 -260 65 -241 1 7 -6 39 -13 70 -32 121 -59 280 -65 375 -4 66 -10 101 -18
104 -10 3 -13 -25 -13 -120z"/>
<path d="M1251 2855 c0 -5 6 -21 14 -35 8 -14 14 -20 14 -15 0 6 -6 21 -14 35
-8 14 -14 21 -14 15z"/>
<path d="M1283 2780 c11 -34 130 -296 139 -305 12 -13 2 13 -64 160 -50 110
-87 182 -75 145z"/>
<path d="M2078 2763 c-2 -5 0 -51 3 -103 l5 -95 2 87 c1 47 5 93 8 102 6 15
-12 24 -18 9z"/>
<path d="M2110 2760 c0 -5 3 -10 8 -10 4 0 7 -78 6 -172 -1 -169 -1 -170 6
-53 4 66 8 127 10 135 2 8 2 36 2 63 -2 34 -6 47 -17 47 -8 0 -15 -4 -15 -10z"/>
<path d="M2650 2730 c-8 -5 -10 -10 -4 -10 6 0 10 -12 9 -27 -2 -19 -1 -21 2
-5 5 23 43 32 43 10 0 -7 5 -5 11 5 5 9 7 22 4 27 -8 13 -45 13 -65 0z"/>
<path d="M2178 2648 c-13 -16 -15 -25 -6 -35 8 -10 13 -11 18 -3 4 6 11 10 16
9 5 -1 18 -1 29 0 19 2 18 3 -2 11 -33 13 -28 28 10 33 29 3 29 4 -8 5 -30 1
-44 -4 -57 -20z"/>
<path d="M2690 2547 c0 -69 -4 -128 -10 -132 -5 -3 -7 -12 -3 -20 3 -9 1 -21
-5 -28 -7 -8 -6 -18 5 -32 13 -16 15 -17 10 -2 -5 14 -2 16 16 14 12 -2 17 -2
12 0 -6 2 -11 68 -13 161 -2 86 -6 159 -8 161 -2 2 -4 -52 -4 -122z m10 -171
c0 -2 -8 -10 -17 -17 -16 -13 -17 -12 -4 4 13 16 21 21 21 13z"/>
<path d="M1193 2590 c0 -41 2 -58 4 -37 2 20 2 54 0 75 -2 20 -4 3 -4 -38z"/>
<path d="M2293 2645 c11 -10 26 -15 40 -12 36 9 223 -10 255 -25 26 -14 30
-13 40 3 9 14 8 21 -4 34 -20 19 -30 20 -14 0 7 -9 10 -18 6 -22 -3 -3 -6 -2
-6 4 0 6 -52 13 -127 17 -71 3 -146 9 -168 13 -37 5 -38 5 -22 -12z"/>
<path d="M2653 2580 c0 -41 2 -58 4 -37 2 20 2 54 0 75 -2 20 -4 3 -4 -38z"/>
<path d="M1071 2620 c0 -8 4 -24 9 -35 5 -13 9 -14 9 -5 0 8 -4 24 -9 35 -5
13 -9 14 -9 5z"/>
<path d="M2634 2520 c0 -52 1 -74 3 -47 2 26 2 68 0 95 -2 26 -3 4 -3 -48z"/>
<path d="M1091 2544 c0 -11 3 -14 6 -6 3 7 2 16 -1 19 -3 4 -6 -2 -5 -13z"/>
<path d="M1111 2474 c0 -11 3 -14 6 -6 3 7 2 16 -1 19 -3 4 -6 -2 -5 -13z"/>
<path d="M1240 2482 c0 -5 12 -14 27 -21 28 -13 28 -13 9 8 -20 22 -36 27 -36
13z"/>
<path d="M1600 2480 c-9 -6 -10 -10 -3 -10 6 0 15 5 18 10 8 12 4 12 -15 0z"/>
<path d="M1625 2469 c-4 -5 -1 -9 5 -9 6 0 9 -4 6 -9 -10 -15 22 -21 107 -20
94 1 194 19 187 34 -3 6 -14 9 -25 7 -85 -11 -218 -13 -244 -4 -19 7 -33 7
-36 1z"/>
<path d="M2055 2410 c-25 -17 -27 -20 -10 -20 34 0 66 12 62 23 -6 18 -21 18
-52 -3z"/>
<path d="M3197 2418 c14 -7 21 -19 20 -32 -2 -24 -9 -23 176 -32 86 -5 127 -3
127 4 0 6 -38 13 -87 17 -49 4 -124 18 -167 31 -85 26 -104 29 -69 12z"/>
<path d="M1511 2404 c0 -11 3 -14 6 -6 3 7 2 16 -1 19 -3 4 -6 -2 -5 -13z"/>
<path d="M1581 2394 c0 -11 3 -14 6 -6 3 7 2 16 -1 19 -3 4 -6 -2 -5 -13z"/>
<path d="M2642 2390 c0 -14 2 -19 5 -12 2 6 2 18 0 25 -3 6 -5 1 -5 -13z"/>
<path d="M1572 2350 c0 -14 2 -19 5 -12 2 6 2 18 0 25 -3 6 -5 1 -5 -13z"/>
<path d="M801 2344 c0 -11 3 -14 6 -6 3 7 2 16 -1 19 -3 4 -6 -2 -5 -13z"/>
<path d="M792 2300 c0 -14 2 -19 5 -12 2 6 2 18 0 25 -3 6 -5 1 -5 -13z"/>
<path d="M1612 2290 c0 -19 2 -27 5 -17 2 9 2 25 0 35 -3 9 -5 1 -5 -18z"/>
<path d="M1561 2284 c0 -11 3 -14 6 -6 3 7 2 16 -1 19 -3 4 -6 -2 -5 -13z"/>
<path d="M4824 2286 c11 -9 24 -16 30 -16 12 0 7 5 -24 19 -24 11 -24 11 -6
-3z"/>
<path d="M1673 2250 c0 -25 2 -35 4 -22 2 12 2 32 0 45 -2 12 -4 2 -4 -23z"/>
<path d="M782 2240 c0 -14 2 -19 5 -12 2 6 2 18 0 25 -3 6 -5 1 -5 -13z"/>
<path d="M3608 2253 c7 -3 16 -2 19 1 4 3 -2 6 -13 5 -11 0 -14 -3 -6 -6z"/>
<path d="M1603 2205 c0 -27 2 -38 4 -22 2 15 2 37 0 50 -2 12 -4 0 -4 -28z"/>
<path d="M3283 2243 c15 -2 37 -2 50 0 12 2 0 4 -28 4 -27 0 -38 -2 -22 -4z"/>
<path d="M772 2185 c0 -16 2 -22 5 -12 2 9 2 23 0 30 -3 6 -5 -1 -5 -18z"/>
<path d="M1663 2130 c0 -41 2 -58 4 -37 2 20 2 54 0 75 -2 20 -4 3 -4 -38z"/>
<path d="M762 2110 c0 -19 2 -27 5 -17 2 9 2 25 0 35 -3 9 -5 1 -5 -18z"/>
<path d="M3265 2110 c-4 -17 -5 -34 -2 -36 2 -3 7 10 11 27 8 42 0 50 -9 9z"/>
<path d="M3332 2120 c0 -14 2 -19 5 -12 2 6 2 18 0 25 -3 6 -5 1 -5 -13z"/>
<path d="M2269 2112 c-8 -10 -18 -26 -22 -36 -4 -9 -11 -14 -17 -11 -6 4 -8
11 -5 16 4 5 2 9 -4 9 -6 0 -13 -10 -16 -22 -8 -33 9 -83 27 -83 9 0 26 -11
37 -25 l22 -25 -16 39 c-19 50 -19 90 1 122 20 29 14 41 -7 16z"/>
<path d="M3397 2093 c-3 -4 -8 -35 -11 -68 l-6 -60 14 65 c13 62 14 81 3 63z"/>
<path d="M3446 2078 c-8 -25 -14 -100 -8 -94 6 7 21 106 15 106 -2 0 -5 -6 -7
-12z"/>
<path d="M3523 2020 c0 -41 2 -58 4 -37 2 20 2 54 0 75 -2 20 -4 3 -4 -38z"/>
<path d="M3322 2055 c0 -16 2 -22 5 -12 2 9 2 23 0 30 -3 6 -5 -1 -5 -18z"/>
<path d="M753 2020 c0 -25 2 -35 4 -22 2 12 2 32 0 45 -2 12 -4 2 -4 -23z"/>
<path d="M3251 2044 c0 -11 3 -14 6 -6 3 7 2 16 -1 19 -3 4 -6 -2 -5 -13z"/>
<path d="M3241 1994 c0 -11 3 -14 6 -6 3 7 2 16 -1 19 -3 4 -6 -2 -5 -13z"/>
<path d="M740 1860 c-7 -258 14 -553 44 -622 19 -43 19 -20 2 83 -23 130 -27
188 -35 429 -6 185 -8 204 -11 110z"/>
<path d="M3371 1934 c0 -11 3 -14 6 -6 3 7 2 16 -1 19 -3 4 -6 -2 -5 -13z"/>
<path d="M1222 1885 c0 -16 2 -22 5 -12 2 9 2 23 0 30 -3 6 -5 -1 -5 -18z"/>
<path d="M1231 1842 c-2 -21 32 -158 36 -147 2 6 -5 44 -16 85 -11 41 -20 69
-20 62z"/>
<path d="M765 1747 c-4 -36 -5 -71 -3 -79 3 -7 8 20 12 61 3 41 4 76 2 78 -2
3 -7 -25 -11 -60z"/>
<path d="M2310 1711 c0 -5 8 -15 18 -20 32 -17 283 -60 390 -67 88 -6 102 -5
102 9 0 13 -19 15 -132 15 -118 -1 -145 3 -238 29 -58 17 -113 33 -122 38 -11
4 -18 3 -18 -4z"/>
<path d="M1271 1670 c0 -8 6 -28 14 -45 17 -39 18 -21 0 25 -7 19 -14 28 -14
20z"/>
<path d="M1301 1588 c-1 -12 31 -89 35 -85 3 2 -4 24 -15 48 -11 24 -20 41
-20 37z"/>
<path d="M1379 1415 c17 -33 31 -51 31 -40 0 6 -10 21 -21 35 -13 17 -17 18
-10 5z"/>
<path d="M1388 913 c-2 -5 -1 -33 3 -63 l6 -55 1 63 c2 57 -1 74 -10 55z"/>
<path d="M1402 770 c0 -14 2 -19 5 -12 2 6 2 18 0 25 -3 6 -5 1 -5 -13z"/>
<path d="M926 743 c-6 -14 -5 -15 5 -6 7 7 10 15 7 18 -3 3 -9 -2 -12 -12z"/>
<path d="M906 705 c-9 -26 -7 -32 5 -12 6 10 9 21 6 23 -2 3 -7 -2 -11 -11z"/>
<path d="M1257 534 c-4 -4 -7 -14 -7 -23 0 -11 3 -12 11 -4 6 6 10 16 7 23 -2
6 -7 8 -11 4z"/>
<path d="M387 483 c-4 -3 -7 -21 -7 -40 0 -26 4 -33 20 -33 17 0 20 7 20 40 0
38 -14 52 -33 33z"/>
<path d="M760 460 c0 -5 11 -10 25 -10 14 0 25 5 25 10 0 6 -11 10 -25 10 -14
0 -25 -4 -25 -10z"/>
<path d="M1287 427 c-9 -26 -12 -47 -7 -47 11 0 33 66 28 82 -3 7 -12 -9 -21
-35z"/>
<path d="M1222 400 c-18 -91 -27 -327 -14 -370 7 -27 8 -9 4 71 -5 104 -4 109
27 174 17 37 31 72 30 79 0 6 -11 -11 -24 -39 -27 -57 -30 -49 -14 41 6 34 9
72 7 85 -2 15 -9 -1 -16 -41z"/>
<path d="M760 406 c0 -21 5 -26 26 -26 21 0 25 4 22 23 -2 14 -11 23 -25 25
-19 3 -23 -1 -23 -22z"/>
</g>
</svg>
